<mxfile host="app.diagrams.net" modified="2022-10-25T20:18:39.913Z" agent="5.0 (X11; Linux x86_64) AppleWebKit/537.36 (KHTML, like Gecko) Chrome/106.0.0.0 Safari/537.36" etag="28q5mOJrzWEKaj8pxZBM" version="20.5.1" type="github">
  <diagram id="UIs5vDKcKtLy-ftOPhSB" name="Page-1">
    <mxGraphModel dx="1185" dy="693" grid="1" gridSize="10" guides="1" tooltips="1" connect="1" arrows="1" fold="1" page="1" pageScale="1" pageWidth="827" pageHeight="1169" math="0" shadow="0">
      <root>
        <mxCell id="0" />
        <mxCell id="1" parent="0" />
        <mxCell id="m95KH_vCJQfkU3XO7uXv-1" value="Guess Number&amp;nbsp;&lt;br&gt;1-20" style="rounded=0;whiteSpace=wrap;html=1;" vertex="1" parent="1">
          <mxGeometry x="354" y="50" width="120" height="60" as="geometry" />
        </mxCell>
        <mxCell id="m95KH_vCJQfkU3XO7uXv-2" value="" style="endArrow=classic;html=1;rounded=0;exitX=0.5;exitY=1;exitDx=0;exitDy=0;" edge="1" parent="1" source="m95KH_vCJQfkU3XO7uXv-1">
          <mxGeometry width="50" height="50" relative="1" as="geometry">
            <mxPoint x="390" y="450" as="sourcePoint" />
            <mxPoint x="414" y="230" as="targetPoint" />
          </mxGeometry>
        </mxCell>
        <mxCell id="m95KH_vCJQfkU3XO7uXv-9" value="" style="edgeStyle=orthogonalEdgeStyle;rounded=0;orthogonalLoop=1;jettySize=auto;html=1;" edge="1" parent="1" source="m95KH_vCJQfkU3XO7uXv-3" target="m95KH_vCJQfkU3XO7uXv-8">
          <mxGeometry relative="1" as="geometry" />
        </mxCell>
        <mxCell id="m95KH_vCJQfkU3XO7uXv-11" value="" style="edgeStyle=orthogonalEdgeStyle;rounded=0;orthogonalLoop=1;jettySize=auto;html=1;" edge="1" parent="1" source="m95KH_vCJQfkU3XO7uXv-3" target="m95KH_vCJQfkU3XO7uXv-10">
          <mxGeometry relative="1" as="geometry" />
        </mxCell>
        <mxCell id="m95KH_vCJQfkU3XO7uXv-3" value="if Guess" style="rhombus;whiteSpace=wrap;html=1;" vertex="1" parent="1">
          <mxGeometry x="374" y="240" width="80" height="80" as="geometry" />
        </mxCell>
        <mxCell id="m95KH_vCJQfkU3XO7uXv-21" value="" style="edgeStyle=orthogonalEdgeStyle;rounded=0;orthogonalLoop=1;jettySize=auto;html=1;" edge="1" parent="1" source="m95KH_vCJQfkU3XO7uXv-8" target="m95KH_vCJQfkU3XO7uXv-20">
          <mxGeometry relative="1" as="geometry" />
        </mxCell>
        <mxCell id="m95KH_vCJQfkU3XO7uXv-8" value="False" style="whiteSpace=wrap;html=1;" vertex="1" parent="1">
          <mxGeometry x="194" y="250" width="120" height="60" as="geometry" />
        </mxCell>
        <mxCell id="m95KH_vCJQfkU3XO7uXv-19" value="" style="edgeStyle=orthogonalEdgeStyle;rounded=0;orthogonalLoop=1;jettySize=auto;html=1;" edge="1" parent="1" source="m95KH_vCJQfkU3XO7uXv-10" target="m95KH_vCJQfkU3XO7uXv-18">
          <mxGeometry relative="1" as="geometry" />
        </mxCell>
        <mxCell id="m95KH_vCJQfkU3XO7uXv-10" value="True" style="whiteSpace=wrap;html=1;" vertex="1" parent="1">
          <mxGeometry x="514" y="250" width="120" height="60" as="geometry" />
        </mxCell>
        <mxCell id="m95KH_vCJQfkU3XO7uXv-18" value="Win Game!" style="ellipse;whiteSpace=wrap;html=1;" vertex="1" parent="1">
          <mxGeometry x="514" y="390" width="120" height="60" as="geometry" />
        </mxCell>
        <mxCell id="m95KH_vCJQfkU3XO7uXv-20" value="-1 point" style="whiteSpace=wrap;html=1;" vertex="1" parent="1">
          <mxGeometry x="194" y="390" width="120" height="60" as="geometry" />
        </mxCell>
        <mxCell id="m95KH_vCJQfkU3XO7uXv-22" value="" style="endArrow=classic;html=1;rounded=0;" edge="1" parent="1" source="m95KH_vCJQfkU3XO7uXv-20">
          <mxGeometry width="50" height="50" relative="1" as="geometry">
            <mxPoint x="410" y="400" as="sourcePoint" />
            <mxPoint x="350" y="80" as="targetPoint" />
            <Array as="points">
              <mxPoint x="70" y="420" />
              <mxPoint x="70" y="80" />
            </Array>
          </mxGeometry>
        </mxCell>
      </root>
    </mxGraphModel>
  </diagram>
</mxfile>
